<?xml version="1.0" encoding="UTF-8"?>
<svg width="100px" height="60px" viewBox="0 0 100 60" version="1.1" xmlns="http://www.w3.org/2000/svg" xmlns:xlink="http://www.w3.org/1999/xlink">
    <!-- Generator: Sketch 51.3 (57544) - http://www.bohemiancoding.com/sketch -->
    <title>Brand / TNF</title>
    <desc>Created with Sketch.</desc>
    <defs>
        <polygon id="path-1" points="0.5494 0.9254 10.7324 0.9254 10.7324 13 0.5494 13"></polygon>
    </defs>
    <g id="Brand-/-TNF" stroke="none" stroke-width="1" fill="none" fill-rule="evenodd">
        <g id="Group-29" transform="translate(10.000000, 12.000000)">
            <g>
                <polygon id="Fill-1" fill="#003B44" points="23.2344 0.0271 23.2344 2.0571 26.6874 2.0571 26.6874 11.4941 29.0704 11.4941 29.0704 2.0571 32.5254 2.0571 32.5254 0.0271"></polygon>
                <polygon id="Fill-2" fill="#003B44" points="39.9825 0.0271 39.9825 4.3761 35.5295 4.3761 35.5295 0.0271 33.1465 0.0271 33.1465 11.4941 35.5295 11.4941 35.5295 6.3501 39.9825 6.3501 39.9825 11.4941 42.3685 11.4941 42.3685 0.0271"></polygon>
                <polygon id="Fill-3" fill="#003B44" points="43.6869 0.0271 43.6869 11.4941 51.9249 11.4941 51.9249 9.4681 45.9139 9.4681 45.9139 6.4961 51.1969 6.4961 51.1969 4.4681 45.9139 4.4681 45.9139 2.0571 51.9129 2.0571 51.9129 0.0271"></polygon>
                <polygon id="Fill-4" fill="#003B44" points="7.0776 12.6298 7.0776 20.6148 7.0436 20.6148 2.5096 12.6298 -0.0004 12.6298 -0.0004 24.0958 2.2266 24.0958 2.2266 15.9208 2.2606 15.9208 6.9206 24.0958 9.3066 24.0958 9.3066 12.6298"></polygon>
                <g id="Group-28" transform="translate(10.000000, 0.000000)">
                    <path d="M5.9637,12.3271 C7.4727,12.3271 11.4467,12.9801 11.4467,18.3621 C11.4467,23.7431 7.4707,24.4021 5.9637,24.4021 C4.4497,24.4021 0.4747,23.7451 0.4747,18.3621 C0.4747,12.9801 4.4497,12.3271 5.9637,12.3271 M5.9637,22.3721 C7.2507,22.3721 9.0627,21.5731 9.0627,18.3601 C9.0627,15.1561 7.2507,14.3531 5.9637,14.3531 C4.6747,14.3531 2.8607,15.1561 2.8607,18.3601 C2.8607,21.5751 4.6747,22.3721 5.9637,22.3721" id="Fill-5" fill="#003B44"></path>
                    <polygon id="Fill-7" fill="#003B44" points="28.3807 24.0957 25.9917 24.0957 25.9917 14.6577 22.5417 14.6577 22.5417 12.6297 31.8257 12.6297 31.8257 14.6577 28.3807 14.6577"></polygon>
                    <polygon id="Fill-9" fill="#003B44" points="35.0682 18.957 35.0682 24.096 32.6872 24.096 32.6872 12.63 35.0682 12.63 35.0682 16.972 39.5212 16.972 39.5212 12.63 41.9132 12.63 41.9132 24.096 39.5212 24.096 39.5212 18.957"></polygon>
                    <polygon id="Fill-11" fill="#003B44" points="7.8612 36.6943 5.4782 36.6943 5.4782 25.2313 13.6012 25.2313 13.6012 27.2593 7.8612 27.2593 7.8612 29.8463 12.8902 29.8463 12.8902 31.8753 7.8612 31.8753"></polygon>
                    <path d="M14.6893,36.6943 L12.1723,36.6943 L16.2493,25.2313 L19.0003,25.2313 L23.0213,36.6943 L20.4293,36.6943 L19.6973,34.3343 L15.4843,34.3343 L14.6893,36.6943 Z M16.1203,32.3533 L19.0293,32.3533 L17.6153,27.8143 L17.5853,27.8143 L16.1203,32.3533 Z" id="Fill-13" fill="#003B44"></path>
                    <g id="Group-17" transform="translate(22.000000, 24.000000)">
                        <mask id="mask-2" fill="white">
                            <use xlink:href="#path-1"></use>
                        </mask>
                        <g id="Clip-16"></g>
                        <path d="M8.3494,4.9814 C8.1594,4.2964 7.7904,2.9994 5.8184,2.9994 C4.6764,2.9994 2.9884,3.7674 2.9884,7.0094 C2.9884,9.0694 3.7984,10.9224 5.8184,10.9224 C7.1424,10.9224 8.0624,10.1694 8.3494,8.7674 L10.7324,8.7674 C10.2564,11.2574 8.6344,13.0004 5.7734,13.0004 C2.7364,13.0004 0.5494,10.9444 0.5494,6.9804 C0.5494,2.9714 2.8594,0.9254 5.8044,0.9254 C9.2264,0.9254 10.6034,3.2914 10.7324,4.9814 L8.3494,4.9814" id="Fill-15" fill="#003B44" mask="url(#mask-2)"></path>
                    </g>
                    <polygon id="Fill-18" fill="#003B44" points="41.9129 27.2598 35.9139 27.2598 35.9139 29.6678 41.1969 29.6678 41.1969 31.6968 35.9139 31.6968 35.9139 34.6698 41.9249 34.6698 41.9249 36.6948 33.6869 36.6948 33.6869 25.2318 41.9129 25.2318"></polygon>
                    <path d="M12.617,12.624 L18.381,12.624 C21.411,12.624 21.963,14.867 21.963,15.862 C21.963,17.119 21.328,18.204 20.2,18.584 C21.14,19 21.648,19.348 21.648,21.483 C21.648,23.158 21.648,23.574 22.152,23.765 L22.152,24.068 L19.517,24.068 C19.359,23.527 19.265,22.938 19.265,21.758 C19.265,20.194 19.174,19.589 17.408,19.589 L14.95,19.589 L14.95,24.068 L12.617,24.068 L12.617,12.624 Z M17.747,17.66 C18.984,17.66 19.586,17.229 19.586,16.096 C19.586,15.491 19.312,14.603 17.919,14.603 L14.95,14.603 L14.95,17.66 L17.747,17.66 Z" id="Fill-20" fill="#003B44"></path>
                    <path d="M45.5028,24.873 L43.4728,24.883 L43.4728,36.696 L49.2828,36.696 L49.2768,28.668 C49.2748,26.579 47.5848,24.873 45.5028,24.873" id="Fill-22" fill="#003B44"></path>
                    <path d="M44.6688,12.2803 L43.4728,12.2803 L43.4728,24.3953 L45.5028,24.3853 C47.8518,24.3853 49.7608,26.3063 49.7608,28.6683 L49.7658,36.6943 L58.6488,36.6943 L58.6488,26.3283 C58.6488,18.5843 52.3758,12.2803 44.6688,12.2803" id="Fill-24" fill="#003B44"></path>
                    <path d="M69.9998,26.7061 C69.9998,11.9571 58.1638,0.0001 43.4838,0.0001 L43.4708,0.0001 L43.4708,11.7941 L44.6678,11.7941 C52.6448,11.7941 59.1308,18.3131 59.1308,26.3281 L59.1308,36.6941 L69.9998,36.6941 L69.9998,26.7061 Z" id="Fill-26" fill="#003B44"></path>
                </g>
            </g>
        </g>
    </g>
</svg>