<?xml version="1.0" encoding="UTF-8"?>
<svg width="90px" height="60px" viewBox="0 0 90 60" version="1.1" xmlns="http://www.w3.org/2000/svg" xmlns:xlink="http://www.w3.org/1999/xlink">
    <!-- Generator: Sketch 51.3 (57544) - http://www.bohemiancoding.com/sketch -->
    <title>Brand / Puma</title>
    <desc>Created with Sketch.</desc>
    <defs></defs>
    <g id="Brand-/-Puma" stroke="none" stroke-width="1" fill="none" fill-rule="evenodd">
        <g id="Group-14-Copy" transform="translate(10.000000, 1.000000)">
            <g id="Group-3" transform="translate(39.000000, 0.000100)">
                <polygon id="Clip-2" points="0.264613955 0 41 0 41 31.9007553 0.264613955 31.9007553"></polygon>
                <path d="M38.2539,0.5801 C34.3699,2.8981 33.7979,6.9881 32.4519,9.3361 C31.3789,11.2131 29.6339,12.5921 28.0719,12.7041 C26.9039,12.7911 25.6429,12.5531 24.3869,11.9981 C21.3339,10.6521 19.6629,8.9141 19.2679,8.6071 C18.4479,7.9701 12.0799,1.6821 6.9199,1.4261 C6.9199,1.4261 6.2789,0.1351 6.1179,0.1141 C5.7409,0.0651 5.3549,0.8841 5.0769,0.9791 C4.8169,1.0651 4.3799,0.0941 4.1169,0.1371 C3.8559,0.1761 3.6039,1.1441 3.0979,1.6501 C2.7279,2.0151 2.2659,1.9921 2.0209,2.4431 C1.9279,2.6111 1.9569,2.8981 1.8529,3.1741 C1.6459,3.7261 0.9189,3.7741 0.9189,4.3751 C0.9159,5.0251 1.5239,5.1481 2.0519,5.6101 C2.4639,5.9801 2.5029,6.2361 3.0019,6.4161 C3.4279,6.5611 4.0609,6.0861 4.6309,6.2571 C5.0979,6.3961 5.5459,6.4981 5.6509,6.9811 C5.7449,7.4281 5.6449,8.1171 5.0769,8.0371 C4.8869,8.0161 4.0569,7.7351 3.0379,7.8451 C1.8089,7.9841 0.4059,8.3891 0.2689,9.7681 C0.1929,10.5371 1.1409,11.4451 2.0569,11.2621 C2.6889,11.1371 2.3899,10.3851 2.7329,10.0211 C3.1859,9.5551 5.7449,11.6511 8.1229,11.6511 C9.1249,11.6511 9.8699,11.3961 10.6099,10.6171 C10.6789,10.5571 10.7639,10.4311 10.8699,10.4221 C10.9719,10.4311 11.1479,10.5301 11.2049,10.5721 C13.1199,12.1211 14.5689,15.2281 21.6109,15.2641 C22.6029,15.2691 23.7299,15.7461 24.6509,16.5911 C25.4739,17.3541 25.9529,18.5451 26.4199,19.7501 C27.1259,21.5591 28.3879,23.3191 30.3029,25.2781 C30.4069,25.3831 31.9829,26.6161 32.1099,26.7071 C32.1299,26.7211 32.2459,26.9991 32.2049,27.1541 C32.1589,28.3291 31.9889,31.7441 34.5209,31.8991 C35.1389,31.9311 34.9779,31.4921 34.9779,31.1911 C34.9759,30.5971 34.8679,30.0051 35.1799,29.3961 C35.6059,28.5591 34.2749,28.1741 34.3149,26.3621 C34.3419,25.0121 33.2139,25.2431 32.6429,24.2141 C32.3129,23.6171 32.0199,23.3021 32.0399,22.5721 C32.1689,18.4711 31.1729,15.7741 30.6759,15.1131 C30.2869,14.6131 29.9669,14.4151 30.3209,14.1841 C32.4349,12.7791 32.9129,11.4751 32.9129,11.4751 C34.0369,8.8181 35.0479,6.3921 36.4409,5.3241 C36.7209,5.1031 37.4409,4.5621 37.8819,4.3511 C39.1829,3.7341 39.8659,3.3601 40.2439,2.9921 C40.8409,2.4061 41.3149,1.1841 40.7409,0.4441 C40.0279,-0.4689 38.7969,0.2561 38.2539,0.5801" id="Fill-1" fill="#003B44"></path>
            </g>
            <path d="M21.3027,36.756 C21.3027,37.252 20.8897,37.652 20.4017,37.664 C19.9157,37.652 19.5027,37.252 19.5027,36.756 L19.5047,20.568 L14.1987,20.568 L14.1987,38.412 C14.1987,39.287 14.9047,40 15.7687,40 L25.0397,40 C25.9097,40 26.6077,39.287 26.6077,38.412 L26.6077,20.568 L21.3067,20.568 L21.3027,36.756 Z" id="Fill-4" fill="#003B44"></path>
            <g id="Group-8" transform="translate(28.000000, 20.000100)">
                <polygon id="Clip-7" points="0.4094 0.5674 19.9174 0.5674 19.9174 20 0.4094 20"></polygon>
                <path d="M18.1914,0.5674 L10.1624,0.5674 L2.1334,0.5674 C1.1824,0.5674 0.4094,1.3454 0.4094,2.3094 L0.4094,20.0004 L5.7184,20.0004 L5.7184,3.7734 C5.7224,3.2764 6.1234,2.8824 6.6174,2.8824 C7.1114,2.8824 7.5094,3.2664 7.5214,3.7594 L7.5214,20.0004 L12.8084,20.0004 L12.8084,3.7594 C12.8154,3.2664 13.2124,2.8824 13.7084,2.8824 C14.1974,2.8824 14.6034,3.2764 14.6064,3.7734 L14.6064,20.0004 L19.9174,20.0004 L19.9174,2.3094 C19.9174,1.3454 19.1404,0.5674 18.1914,0.5674" id="Fill-6" fill="#003B44"></path>
            </g>
            <g id="Group-11" transform="translate(0.000000, 20.000100)">
                <polygon id="Clip-10" points="0 0.5679 12.3996 0.5679 12.3996 19.9999 0 19.9999"></polygon>
                <path d="M7.1016,11.7979 C7.1056,12.3369 6.6706,12.7109 6.2036,12.7109 L5.3016,12.7109 L5.3016,2.8829 L6.2036,2.8829 C6.6676,2.8829 7.1056,3.2669 7.1016,3.8069 L7.1016,11.7979 Z M10.6956,0.5679 L-0.0004,0.5679 L-0.0004,19.9999 L5.3016,19.9999 L5.3016,15.1169 L10.6616,15.1169 C11.6226,15.1169 12.3996,14.3369 12.3996,13.3649 L12.3996,2.3179 C12.3996,1.3509 11.6526,0.5679 10.6956,0.5679 Z" id="Fill-9" fill="#003B44"></path>
            </g>
            <path d="M56.8184,32.714 L55.0154,32.714 L55.0154,23.781 C55.0204,23.287 55.4244,22.892 55.9154,22.892 C56.4104,22.892 56.8054,23.272 56.8184,23.767 L56.8184,32.714 Z M60.3934,20.568 L51.4414,20.568 C50.4904,20.568 49.7154,21.346 49.7154,22.31 L49.7154,40 L55.0154,40 L55.0154,35.121 L56.8184,35.121 L56.8184,40 L62.1194,40 L62.1194,22.31 C62.1194,21.346 61.3464,20.568 60.3934,20.568 Z" id="Fill-12" fill="#003B44"></path>
        </g>
    </g>
</svg>