<svg width="74" height="60" viewBox="0 0 74 60" fill="none" xmlns="http://www.w3.org/2000/svg">
<path fill-rule="evenodd" clip-rule="evenodd" d="M56.862 14.5537C53.4352 14.5537 51.1323 16.5818 51.1323 19.6006C51.1323 22.4799 53.5957 24.651 56.862 24.651C60.2382 24.651 62.5964 22.5741 62.5964 19.6006C62.5964 16.5818 60.2919 14.5537 56.862 14.5537M56.8608 22.1651C55.4293 22.1651 54.2645 21.0056 54.2645 19.58C54.2645 18.1662 55.4293 17.0158 56.8608 17.0158C58.2874 17.0158 59.4481 18.1662 59.4481 19.58C59.4481 21.0056 58.2874 22.1651 56.8608 22.1651" fill="#222222"/>
<path fill-rule="evenodd" clip-rule="evenodd" d="M45.31 14.7067H43.2473V17.3137L44.6452 17.3184C45.7813 17.3184 46.7061 18.2949 46.7061 19.4957C46.7061 20.9708 45.51 21.6877 44.7014 21.7075H42.1453V12H38.9771V24.3192H44.6794C47.2005 24.3192 49.8997 22.4246 49.8997 19.6044C49.8997 16.5385 47.566 14.7067 45.31 14.7067" fill="#222222"/>
<path fill-rule="evenodd" clip-rule="evenodd" d="M16.7488 19.5144C16.7488 18.2954 17.7367 17.3034 18.9503 17.3034H21.4591L19.4339 20.6651H22.4597L24.4964 17.4978V14.714L18.4516 14.7209C15.8149 14.7209 13.6702 16.8739 13.6702 19.5197C13.6702 22.1659 15.8149 24.3191 18.4514 24.3191H24.5155V21.7246H18.9503C17.7367 21.7246 16.7488 20.7329 16.7488 19.5144" fill="#222222"/>
<path fill-rule="evenodd" clip-rule="evenodd" d="M7.73201 12.0001H0.000244141V24.3188H3.07166V14.6876L7.05614 14.6912C8.14888 14.6927 9.31643 15.271 9.31643 16.8906C9.31643 18.129 8.43851 19.0689 7.20887 19.0689L4.13705 19.0673V21.6344H6.28983C8.13922 21.7088 8.95671 22.5524 8.96863 24.3695V27.0037H12.1911V23.4966C12.1911 21.6378 10.8676 20.6934 9.59352 20.3751C11.595 19.702 12.58 18.1547 12.58 16.2794C12.58 13.6362 10.0636 12.0001 7.73201 12.0001" fill="#222222"/>
<path fill-rule="evenodd" clip-rule="evenodd" d="M71.1545 19.1887C73.2869 18.5237 73.8948 17.3618 73.9028 15.0518V14.6962H70.7703V15.2174C70.7703 16.7653 70.1091 17.8741 68.641 17.8741L67.1509 17.8749V12.0001H63.9709V24.3188H67.1509V20.478H68.2917C69.8731 20.478 70.8394 21.3838 70.8394 22.8114V24.3188H74.0002V22.9149C74.0002 21.0741 73.1774 19.7445 71.1545 19.1887" fill="#222222"/>
<path fill-rule="evenodd" clip-rule="evenodd" d="M29.0998 19.5144C29.0998 18.2954 30.0877 17.3034 31.3013 17.3034H33.8102L31.785 20.6651H34.811L36.8474 17.4978V14.714L30.8027 14.7209C28.166 14.7209 26.0212 16.8739 26.0212 19.5197C26.0212 22.1659 28.166 24.3191 30.8025 24.3191H36.8666V21.7246H31.3013C30.0877 21.7246 29.0998 20.7329 29.0998 19.5144" fill="#222222"/>
<path fill-rule="evenodd" clip-rule="evenodd" d="M47.3795 37.5038C55.5131 34.2654 60.5782 32.3999 73.9993 29.156C66.7157 29.6343 50.5913 30.7359 39.48 32.8925C39.48 32.8925 47.2068 37.4031 47.3795 37.5038" fill="#222222"/>
<path fill-rule="evenodd" clip-rule="evenodd" d="M22.0854 48.2335H32.7162C34.8221 45.0617 36.9177 43.5145 39.3579 41.7932C37.511 41.0837 35.6554 40.3981 33.7684 39.7347C26.9787 42.7152 23.2024 46.7146 22.0854 48.2335" fill="#222222"/>
<path fill-rule="evenodd" clip-rule="evenodd" d="M24.1872 36.69C14.7095 40.0617 9.43061 43.7222 5.87183 48.2336H17.6165C18.7608 46.6497 23.1181 42.082 31.3071 38.9055C29.0484 38.1463 25.125 36.9273 24.1872 36.69" fill="#222222"/>
<mask id="mask0" mask-type="alpha" maskUnits="userSpaceOnUse" x="3" y="29" width="60" height="20">
<path fill-rule="evenodd" clip-rule="evenodd" d="M3.08179 29.5901H62.1753V48.9031H3.08179V29.5901Z" fill="white"/>
</mask>
<g mask="url(#mask0)">
<path fill-rule="evenodd" clip-rule="evenodd" d="M29.0558 29.5901H3.08179C29.2675 34.2981 41.8851 40.3472 62.1753 48.9032C60.441 47.6144 32.4754 31.232 29.0558 29.5901" fill="#222222"/>
</g>
</svg>
